<?xml version="1.0" encoding="UTF-8" standalone="no"?>
<!-- Created with Inkscape (http://www.inkscape.org/) -->

<svg
   xmlns:dc="http://purl.org/dc/elements/1.1/"
   xmlns:cc="http://creativecommons.org/ns#"
   xmlns:rdf="http://www.w3.org/1999/02/22-rdf-syntax-ns#"
   xmlns:svg="http://www.w3.org/2000/svg"
   xmlns="http://www.w3.org/2000/svg"
   xmlns:sodipodi="http://sodipodi.sourceforge.net/DTD/sodipodi-0.dtd"
   xmlns:inkscape="http://www.inkscape.org/namespaces/inkscape"
   version="1.1"
   width="100"
   height="100"
   id="svg2"
   inkscape:version="0.48.5 r10040"
   sodipodi:docname="bk.svg"
   inkscape:export-filename="/home/antoine/ownCloud/scripts/happening/Checkers/bk.png"
   inkscape:export-xdpi="300"
   inkscape:export-ydpi="300">
  <sodipodi:namedview
     pagecolor="#ffffff"
     bordercolor="#666666"
     borderopacity="1"
     objecttolerance="10"
     gridtolerance="10"
     guidetolerance="10"
     inkscape:pageopacity="0"
     inkscape:pageshadow="2"
     inkscape:window-width="956"
     inkscape:window-height="1041"
     id="namedview3048"
     showgrid="false"
     inkscape:zoom="2.8284271"
     inkscape:cx="39.695774"
     inkscape:cy="13.340912"
     inkscape:window-x="960"
     inkscape:window-y="18"
     inkscape:window-maximized="0"
     inkscape:current-layer="svg2" />
  <defs
     id="defs4" />
  <metadata
     id="metadata7">
    <rdf:RDF>
      <cc:Work
         rdf:about="">
        <dc:format>image/svg+xml</dc:format>
        <dc:type
           rdf:resource="http://purl.org/dc/dcmitype/StillImage" />
        <dc:title />
      </cc:Work>
    </rdf:RDF>
  </metadata>
  <g
     transform="matrix(0.98851441,0,0,0.75480702,0.57428086,-703.07316)"
     id="layer1-7"
     style="fill:#ffffff;stroke:#000000;stroke-width:1.1966989;stroke-miterlimit:4;stroke-dasharray:none" />
  <g
     transform="translate(4.4405755e-5,4.5109255)"
     id="g4162">
    <g
       transform="translate(0,0.97815284)"
       id="g4157">
      <path
         d="m 94.48315,53.516852 c 0,8.89236 -4.794087,17.729964 -13.028812,24.017809 -8.234726,6.287845 -19.808676,9.948491 -31.454336,9.948491 -11.645661,0 -23.219611,-3.660646 -31.454337,-9.948491 C 10.31094,71.246816 5.4925079,62.409179 5.516853,53.516852 L 5.538695,45.538696 94.461791,45.20724 z"
         id="rect4086"
         style="fill:#ffffff;fill-opacity:1;stroke:#000000;stroke-width:1.07739031;stroke-linecap:butt;stroke-linejoin:miter;stroke-miterlimit:4;stroke-opacity:1" />
      <g
         transform="matrix(0.98842851,0,0,0.76620633,0.57857273,-723.01625)"
         id="layer1"
         style="fill:#000000;stroke:#000000;stroke-width:1.1966989;stroke-miterlimit:4;stroke-dasharray:none">
        <path
           d="m 92.142857,51.07143 a 40.089287,45.357143 0 1 1 -80.178574,0 40.089287,45.357143 0 1 1 80.178574,0 z"
           transform="matrix(1.1224944,0,0,0.99212597,-8.4298406,951.69289)"
           id="path2985"
           style="fill:#000000;fill-opacity:1;stroke:#000000;stroke-width:1.13399041;stroke-miterlimit:4;stroke-dasharray:none" />
      </g>
    </g>
    <g
       id="g4152">
      <path
         d="m 94.48315,45.495005 c 0,8.89236 -4.794087,17.729964 -13.028812,24.017809 -8.234726,6.287845 -19.808676,9.948491 -31.454336,9.948491 -11.645661,0 -23.219611,-3.660646 -31.454337,-9.948491 C 10.31094,63.224969 5.4925079,54.387332 5.516853,45.495005 l 0.021842,-7.978156 88.923096,-0.331456 z"
         id="path4146"
         style="fill:#ffffff;fill-opacity:1;stroke:#000000;stroke-width:1.07739031;stroke-linecap:butt;stroke-linejoin:miter;stroke-miterlimit:4;stroke-opacity:1" />
      <g
         transform="matrix(0.98842851,0,0,0.76620633,0.57857273,-731.0381)"
         id="g4148"
         style="fill:#000000;stroke:#000000;stroke-width:1.1966989;stroke-miterlimit:4;stroke-dasharray:none">
        <path
           d="m 92.142857,51.07143 a 40.089287,45.357143 0 1 1 -80.178574,0 40.089287,45.357143 0 1 1 80.178574,0 z"
           transform="matrix(1.1224944,0,0,0.99212597,-8.4298406,951.69289)"
           id="path4150"
           style="fill:#000000;fill-opacity:1;stroke:#000000;stroke-width:1.13399041;stroke-miterlimit:4;stroke-dasharray:none" />
      </g>
    </g>
  </g>
  <path
     style="fill:#ffffff"
     d="m 159.83879,70.69016 c -0.15761,-0.003 -0.81524,-0.0145 -1.46142,-0.0259 -12.22764,-0.21269 -24.83343,-1.12557 -36.95609,-2.67633 -1.13363,-0.145 -3.16509,-0.41597 -3.17213,-0.42309 -0.009,-0.009 -0.16756,-3.11014 -0.15946,-3.11686 0.004,-0.003 0.39439,0.0352 0.86721,0.0858 22.70831,2.43211 48.01354,2.92208 72.36478,1.40114 5.73845,-0.3584 12.02871,-0.89183 15.87404,-1.34616 0.26208,-0.031 0.47887,-0.054 0.48174,-0.0511 0.007,0.007 -0.15053,3.09605 -0.1584,3.10565 -0.0206,0.0253 -2.21123,0.36904 -3.65582,0.57358 -9.08299,1.28601 -20.27322,2.14377 -31.42556,2.40886 -0.46758,0.0111 -1.23267,0.0294 -1.70024,0.0407 -0.74432,0.018 -10.10998,0.0381 -10.89865,0.0234 z m 1.02205,-6.55954 c -12.78374,-0.1163 -25.70982,-0.68209 -37.55784,-1.64394 -1.93077,-0.15674 -5.32295,-0.46332 -5.34248,-0.48285 -0.008,-0.008 -0.50026,-9.39945 -0.49348,-9.40789 0.002,-0.003 0.24837,0.0203 0.54654,0.0521 11.26035,1.19679 23.3991,1.94288 35.75978,2.19789 16.06742,0.33149 33.09443,-0.20755 47.99802,-1.51954 2.24696,-0.19779 6.09809,-0.58598 6.46302,-0.65146 l 0.0633,-0.0113 -0.0116,0.15995 c -0.0127,0.17426 -0.46832,9.05962 -0.46832,9.13302 l 0,0.0449 -0.76894,0.0819 c -10.53518,1.12231 -21.63167,1.77694 -33.73232,1.98992 -3.45786,0.0609 -9.17175,0.0871 -12.45561,0.0573 z m 2.82531,-2.77004 c 0.18025,-0.0439 0.42318,-0.15162 0.58683,-0.26024 0.55603,-0.36909 0.87457,-1.06912 0.79234,-1.74139 -0.0932,-0.76213 -0.62461,-1.36877 -1.37004,-1.56395 -0.15953,-0.0418 -0.22979,-0.0494 -0.45604,-0.0494 -0.22705,0 -0.2963,0.008 -0.45848,0.05 -1.33871,0.35028 -1.82634,1.97717 -0.90491,3.01917 0.2601,0.29413 0.68014,0.51667 1.10194,0.58376 0.16394,0.0261 0.52482,0.007 0.70836,-0.038 z m -14.96976,-0.0646 c 0.33313,-0.10004 0.5839,-0.25585 0.82669,-0.51361 0.37342,-0.39642 0.54941,-0.92481 0.48578,-1.45826 -0.0851,-0.71269 -0.55448,-1.30199 -1.21744,-1.52825 -0.24818,-0.0847 -0.42628,-0.11001 -0.69275,-0.0984 -0.3774,0.0163 -0.73195,0.14024 -1.0125,0.35352 -1.09861,0.83524 -0.95005,2.50991 0.27702,3.12272 0.29601,0.14782 0.48965,0.18776 0.86922,0.17932 0.25269,-0.006 0.32073,-0.014 0.46398,-0.057 z m 29.24097,-0.27818 c 0.63133,-0.18459 1.10123,-0.65723 1.2853,-1.29273 0.0379,-0.13091 0.0437,-0.1937 0.0436,-0.47559 -1.9e-4,-0.35912 -0.0198,-0.46819 -0.13402,-0.73903 -0.21096,-0.50081 -0.67832,-0.90233 -1.22222,-1.05009 -0.22913,-0.0622 -0.69829,-0.0624 -0.92652,0 -0.65386,0.17784 -1.14425,0.66829 -1.32128,1.32141 -0.0372,0.13735 -0.0439,0.20807 -0.0435,0.4585 0,0.3188 0.0224,0.44734 0.11629,0.68493 0.22325,0.56454 0.72127,0.98573 1.3249,1.12044 0.19093,0.0426 0.6914,0.0269 0.8775,-0.0275 z m -42.37199,-0.38207 c 0.32693,-0.0956 0.57714,-0.24686 0.82274,-0.49733 0.19544,-0.19934 0.32505,-0.40803 0.41249,-0.6642 0.0857,-0.25105 0.11001,-0.4256 0.0979,-0.70233 -0.0127,-0.28735 -0.0606,-0.47643 -0.18436,-0.72593 -0.23663,-0.47705 -0.66964,-0.83046 -1.18571,-0.96778 -0.23535,-0.0626 -0.68293,-0.0625 -0.91697,0 -0.63761,0.17114 -1.11539,0.6362 -1.3121,1.27708 -0.0471,0.15339 -0.0516,0.19597 -0.0527,0.49267 0,0.28197 0.005,0.34598 0.0429,0.48585 0.18436,0.67473 0.71156,1.17582 1.39832,1.32907 0.19093,0.0426 0.69138,0.0269 0.87748,-0.0275 z m 55.37334,-0.26171 c 0.63183,-0.11956 1.17264,-0.60898 1.3722,-1.24176 0.17565,-0.55699 0.0701,-1.19283 -0.27435,-1.65277 -0.60967,-0.81411 -1.76311,-0.98357 -2.57879,-0.37888 -0.77306,0.5731 -0.96887,1.6747 -0.44064,2.47912 0.42098,0.64114 1.14644,0.94101 1.92158,0.79429 z m -67.52477,-0.46625 c 0.40243,-0.0505 0.77463,-0.2334 1.06442,-0.52319 0.71791,-0.71789 0.71791,-1.88293 0,-2.60085 -0.71747,-0.71749 -1.88341,-0.71749 -2.60088,0 -0.71747,0.71747 -0.71747,1.88338 0,2.60085 0.40713,0.40716 0.96016,0.59545 1.53646,0.52319 z m 79.61297,-0.33174 c 1.06509,-0.27126 1.64307,-1.42284 1.23868,-2.46793 -0.11582,-0.29928 -0.38835,-0.64154 -0.65921,-0.82793 -0.14334,-0.0986 -0.42595,-0.22311 -0.61326,-0.27018 -0.2396,-0.0602 -0.61584,-0.0611 -0.85534,-0.002 -0.65352,0.16096 -1.14563,0.62853 -1.34516,1.27815 -0.0474,0.15415 -0.0516,0.19488 -0.0526,0.50208 0,0.35899 0.0129,0.44401 0.11635,0.70259 0.23464,0.58645 0.77537,1.0197 1.4013,1.12273 0.22725,0.0374 0.53437,0.0225 0.76928,-0.0374 z m -41.67027,-7.30289 c -12.91713,-0.0784 -27.78498,-0.72934 -40.08909,-1.75514 -1.80197,-0.15024 -4.13812,-0.36259 -4.14588,-0.37687 0,-0.002 -0.30533,-4.18638 -0.67578,-9.29806 -0.37047,-5.11166 -0.67845,-9.34336 -0.68439,-9.40377 l -0.0108,-0.10986 -0.24794,0 c -0.69554,0 -1.41386,-0.23153 -2.00084,-0.64491 -0.23701,-0.16693 -0.67824,-0.60817 -0.84516,-0.84519 -0.31719,-0.45037 -0.53366,-0.99221 -0.61682,-1.54392 -0.0369,-0.24449 -0.0365,-0.79646 0,-1.04461 0.17263,-1.15111 0.88642,-2.13863 1.91963,-2.65572 0.51945,-0.25995 0.9966,-0.37189 1.58617,-0.3721 0.38008,-2.1e-4 0.56386,0.0203 0.87526,0.0971 0.42913,0.10593 0.85848,0.30121 1.20514,0.54817 0.21715,0.15471 0.55076,0.47003 0.72042,0.68096 0.3478,0.43235 0.60031,0.98111 0.71707,1.5583 0.0394,0.19465 0.0443,0.27195 0.0437,0.67818 0,0.42286 -0.005,0.47713 -0.0519,0.6984 -0.12312,0.5779 -0.37653,1.11109 -0.73852,1.55381 -0.14919,0.18249 -0.45776,0.47491 -0.63713,0.60379 -0.0804,0.0578 -0.14442,0.1107 -0.1422,0.11758 0.008,0.0259 11.10007,10.0456 11.10973,10.03597 0.006,-0.006 0.72865,-4.41788 1.60695,-9.8052 l 1.59687,-9.79513 -0.23921,-0.0124 c -1.05498,-0.0542 -2.02711,-0.47198 -2.76841,-1.18987 -0.6762,-0.65486 -1.0937,-1.43259 -1.26569,-2.35771 -0.0562,-0.30221 -0.0699,-0.96158 -0.027,-1.29833 0.24652,-1.93683 1.77078,-3.46735 3.7035,-3.71869 0.2605,-0.0339 0.82535,-0.0388 1.06456,-0.009 1.46659,0.18072 2.71405,1.06294 3.36192,2.37757 0.50161,1.01781 0.57661,2.21934 0.20631,3.30495 -0.27443,0.80453 -0.79796,1.52104 -1.49042,2.03985 l -0.20459,0.15328 0.93053,0.9208 c 7.42932,7.35173 12.79546,12.65616 12.8034,12.65616 0.008,0 14.38128,-27.4956189 14.40083,-27.5485949 0.003,-0.0092 -0.0182,-0.02164 -0.0478,-0.02757 -0.1971,-0.04007 -0.61046,-0.154178 -0.76641,-0.211586 -0.2553,-0.09397 -0.68881,-0.305745 -0.90831,-0.443699 -0.57783,-0.363179 -1.11906,-0.892039 -1.49747,-1.463243 -1.05819,-1.597372 -1.06938,-3.72442098 -0.0281,-5.34147402 0.26193,-0.40676298 0.69294,-0.88589198 1.05456,-1.17229898 0.66943,-0.53018 1.4124,-0.861305 2.26273,-1.008439 0.29087,-0.05031 1.03335,-0.07044 1.33221,-0.03609 1.12884,0.129722 2.13665,0.612835 2.92978,1.40449 1.43177,1.42907798 1.83357,3.591137 1.01364,5.454206 -0.30316,0.688895 -0.82136,1.360141 -1.41563,1.833757 -0.51139,0.407581 -1.19163,0.749206 -1.80787,0.907975 l -0.20315,0.05234 0.46341,0.938552 c 0.25485,0.516197 3.07476,6.1910949 6.26647,12.6108849 3.1917,6.4198 6.06018,12.19202 6.37442,12.82715 l 0.57131,1.15478 2.64973,-2.64601 c 1.45731,-1.45531 4.51909,-4.51017 6.8039,-6.7886 l 4.15422,-4.14258 -0.0468,-0.0304 c -0.14568,-0.0947 -0.43312,-0.32467 -0.58775,-0.47032 -0.58801,-0.55385 -1.04083,-1.34162 -1.22414,-2.12953 -0.0791,-0.34026 -0.10526,-0.58677 -0.10526,-0.9934 0,-0.43497 0.0282,-0.67629 0.12344,-1.05493 0.3855,-1.53297 1.58605,-2.73178 3.12217,-3.11765 0.31785,-0.0799 0.53651,-0.10838 0.91697,-0.11962 0.55909,-0.0166 1.04036,0.0538 1.54569,0.22583 0.21195,0.0722 0.63842,0.27354 0.83273,0.39318 0.95013,0.58511 1.64895,1.52862 1.91905,2.59117 0.0999,0.39296 0.1318,0.65523 0.13162,1.08202 -1.8e-4,0.42987 -0.0327,0.6985 -0.13041,1.0784 -0.0831,0.32308 -0.15484,0.51667 -0.30564,0.82498 -0.63064,1.2893 -1.8742,2.18037 -3.30151,2.36568 -0.124,0.0161 -0.36795,0.0293 -0.54216,0.0293 l -0.31672,0 0.009,0.0812 c 0.18988,1.66599 2.32125,19.40458 2.33154,19.40458 0.008,0 2.93744,-2.31366 6.50934,-5.14142 l 6.49439,-5.14142 -0.0927,-0.11687 c -0.32324,-0.40758 -0.57152,-0.93676 -0.6813,-1.45203 -0.16977,-0.79693 -0.0705,-1.6027 0.28749,-2.33275 0.48783,-0.99501 1.40887,-1.70008 2.5122,-1.92317 0.19491,-0.0394 0.27253,-0.0444 0.68774,-0.044 0.43507,0 0.48496,0.004 0.70797,0.0518 1.54553,0.33129 2.65612,1.56084 2.82863,3.13167 0.029,0.26416 0.0103,0.73248 -0.0404,1.0092 -0.0522,0.28538 -0.18404,0.6784 -0.31608,0.9424 -0.4914,0.98246 -1.38101,1.66592 -2.47219,1.89932 -0.22266,0.0477 -0.27358,0.0514 -0.70797,0.0519 -0.37742,0 -0.50081,-0.006 -0.63734,-0.0339 -0.0931,-0.019 -0.17381,-0.03 -0.17927,-0.0245 -0.006,0.006 -0.52142,4.21186 -1.14652,9.34751 -0.62511,5.13566 -1.13991,9.34127 -1.14397,9.34583 -0.0169,0.019 -3.2231,0.34237 -5.02151,0.50665 -12.97225,1.18499 -26.73784,1.71467 -42.13317,1.6212 z m -38.71135,-6.43507 c 0.52028,-0.0898 0.91602,-0.29918 1.29677,-0.68613 0.23243,-0.2362 0.36669,-0.43325 0.48992,-0.7191 0.22132,-0.51335 0.24899,-1.15233 0.0729,-1.68314 -0.23502,-0.70834 -0.79274,-1.27437 -1.48129,-1.50335 -0.29591,-0.0984 -0.44798,-0.12257 -0.77216,-0.12268 -0.23306,0 -0.33883,0.009 -0.4967,0.0423 -0.48048,0.10152 -0.88872,0.33118 -1.23739,0.69612 -0.95828,1.00298 -0.84325,2.62452 0.24807,3.4977 0.2881,0.2305 0.68521,0.40958 1.05723,0.47672 0.20554,0.0371 0.61222,0.0379 0.82268,0.002 z m 80.83498,-0.037 c 0.27548,-0.0423 0.44552,-0.0959 0.69728,-0.21974 0.64785,-0.31864 1.07229,-0.84342 1.26604,-1.56537 0.0446,-0.16618 0.0492,-0.21755 0.0502,-0.55564 0,-0.40892 -0.0172,-0.52042 -0.14054,-0.8613 -0.2347,-0.64788 -0.81405,-1.19945 -1.48131,-1.4103 -0.28414,-0.0898 -0.41078,-0.10698 -0.77369,-0.10495 -0.30875,0.002 -0.35144,0.006 -0.55836,0.0607 -0.89599,0.23515 -1.5674,0.94705 -1.7468,1.85212 -0.0399,0.20143 -0.0449,0.67803 -0.009,0.86492 0.16568,0.86373 0.74277,1.54484 1.55007,1.82956 0.36518,0.12877 0.77073,0.16771 1.14621,0.11001 z M 186.34114,45.4078 c 0.70489,-0.0768 1.37505,-0.34561 1.94304,-0.77942 0.16212,-0.12381 0.4896,-0.44494 0.62621,-0.61405 0.93979,-1.1633 1.11645,-2.76563 0.45245,-4.10385 -0.2034,-0.40998 -0.4095,-0.69779 -0.72963,-1.01881 -0.60365,-0.60537 -1.39681,-0.98435 -2.27666,-1.08782 -0.24156,-0.0284 -0.82305,-0.0124 -1.05255,0.029 -0.39792,0.0718 -0.66534,0.15777 -1.01954,0.32788 -0.43283,0.20784 -0.76501,0.44634 -1.0931,0.78477 -0.5104,0.52653 -0.84867,1.16713 -1.00206,1.89763 -0.0681,0.32439 -0.0866,0.94295 -0.0384,1.28748 0.24214,1.73242 1.61782,3.07618 3.3537,3.27595 0.20813,0.024 0.62241,0.0245 0.83656,0 z m -22.65295,-0.21014 c 0.88657,-0.081 1.7188,-0.49066 2.46128,-1.21145 0.47713,-0.46322 0.83672,-0.92987 1.18908,-1.54311 1.48667,-2.58729 1.81059,-6.41111 0.8063,-9.51846 -0.43101,-1.33352 -1.06004,-2.44081 -1.84901,-3.25481 -0.73277,-0.75599 -1.53598,-1.19942 -2.40968,-1.3303 -0.47747,-0.0715 -1.05429,-0.0275 -1.53073,0.11682 -1.06434,0.32242 -2.04848,1.16707 -2.81373,2.41493 -0.7658,1.24881 -1.27208,2.85307 -1.44079,4.56549 -0.27119,2.75229 0.3168,5.51001 1.58444,7.43135 0.60627,0.9189 1.29727,1.56281 2.10201,1.95876 0.63344,0.31165 1.24419,0.4308 1.90083,0.37078 z m -24.19483,-0.34305 c 0.93431,-0.10366 1.74406,-0.49784 2.37893,-1.15803 1.10035,-1.14423 1.37533,-2.8666 0.68675,-4.30127 -0.57152,-1.19071 -1.70414,-1.99606 -3.01663,-2.14502 -0.25921,-0.0294 -0.84938,-0.0132 -1.0902,0.0301 -0.56682,0.10181 -1.11951,0.33548 -1.59054,0.67251 -0.18948,0.13556 -0.56759,0.49617 -0.7253,0.69172 -0.75058,0.93064 -1.02522,2.18567 -0.73193,3.34467 0.32052,1.26657 1.27182,2.28685 2.51184,2.69404 0.49029,0.16101 1.08613,0.2257 1.57708,0.17122 z"
     id="path3131"
     inkscape:connector-curvature="0" />
  <path
     style="fill:#ffffff"
     d="m 47.539717,53.346998 c -0.102814,-0.0014 -0.531828,-0.0058 -0.953368,-0.0108 -7.976762,-0.08847 -16.200223,-0.468177 -24.108505,-1.113195 -0.739529,-0.06029 -2.064763,-0.173022 -2.069355,-0.175983 -0.0059,-0.0043 -0.109309,-1.293641 -0.104026,-1.296443 0.0027,-0.0014 0.257283,0.01465 0.565729,0.03568 14.813892,1.011615 31.321893,1.215415 47.207557,0.582798 3.743508,-0.14908 7.846995,-0.370952 10.355516,-0.559928 0.170972,-0.01287 0.312392,-0.02245 0.314267,-0.02124 0.0046,0.0028 -0.0982,1.287782 -0.10333,1.291772 -0.01342,0.0105 -1.442512,0.153498 -2.384898,0.238576 -5.925339,0.534905 -13.225343,0.891681 -20.500635,1.001945 -0.305024,0.005 -0.804133,0.01223 -1.109157,0.01695 -0.485565,0.0075 -6.595298,0.01587 -7.109794,0.0097 z m 0.666741,-2.728386 c -8.339547,-0.04834 -16.771945,-0.283714 -24.501062,-0.683784 -1.259549,-0.06521 -3.472456,-0.192723 -3.485198,-0.20084 -0.0052,-0.0035 -0.326346,-3.909631 -0.321923,-3.913142 0.0012,-0.0014 0.162025,0.0084 0.356538,0.02167 7.345751,0.497791 15.26453,0.808121 23.328086,0.914195 10.481672,0.137881 21.589329,-0.08634 31.311769,-0.632046 1.465815,-0.08226 3.978124,-0.243732 4.216183,-0.270972 l 0.04127,-0.005 -0.0076,0.06658 c -0.0083,0.07247 -0.305505,3.768275 -0.305505,3.798813 l 0,0.01866 -0.501623,0.03404 c -6.872681,0.466819 -14.111537,0.739106 -22.005466,0.827694 -2.255749,0.02539 -5.983234,0.03618 -8.125479,0.02381 z m 1.843106,-1.152182 c 0.117583,-0.01824 0.27606,-0.06307 0.382818,-0.10824 0.362732,-0.153528 0.570533,-0.444693 0.516887,-0.724323 -0.0608,-0.317003 -0.407463,-0.569325 -0.89375,-0.650512 -0.104071,-0.01738 -0.149905,-0.02059 -0.297503,-0.02059 -0.148114,0 -0.193293,0.0035 -0.299086,0.02073 -0.873321,0.145698 -1.191426,0.822393 -0.590327,1.255803 0.16968,0.12234 0.44369,0.214906 0.718855,0.242809 0.106942,0.01087 0.342372,0.0028 0.462106,-0.0158 z M 40.28396,49.4396 c 0.217319,-0.04162 0.380907,-0.106424 0.539296,-0.213639 0.2436,-0.164885 0.358412,-0.384668 0.316899,-0.606546 -0.0555,-0.296436 -0.361716,-0.541555 -0.794202,-0.635664 -0.161901,-0.03517 -0.27809,-0.04577 -0.451918,-0.0409 -0.246199,0.0072 -0.477492,0.05836 -0.660511,0.147042 -0.716685,0.347409 -0.619773,1.043979 0.180712,1.298874 0.193104,0.0615 0.319431,0.0781 0.56704,0.07458 0.164844,-0.0028 0.20923,-0.0058 0.302684,-0.02374 z m 19.075506,-0.115705 c 0.41185,-0.07678 0.718389,-0.273372 0.838469,-0.537707 0.02473,-0.05442 0.02848,-0.08057 0.02842,-0.197815 -1.2e-4,-0.149373 -0.01291,-0.194739 -0.08744,-0.307391 -0.137617,-0.208313 -0.442504,-0.375321 -0.797318,-0.436777 -0.149476,-0.02589 -0.455533,-0.02596 -0.604421,0 -0.426549,0.07397 -0.746461,0.277972 -0.861946,0.549629 -0.02426,0.05714 -0.02867,0.08655 -0.02838,0.190707 0,0.13261 0.01463,0.186072 0.07586,0.284894 0.145637,0.234814 0.470522,0.41001 0.864301,0.466038 0.124554,0.01774 0.451041,0.01115 0.572445,-0.01143 z M 31.717871,49.164987 c 0.213273,-0.03977 0.376499,-0.102682 0.536714,-0.206859 0.127495,-0.08292 0.212052,-0.169725 0.269088,-0.276272 0.0559,-0.104427 0.07177,-0.177025 0.06387,-0.292128 -0.0083,-0.119518 -0.03953,-0.198167 -0.120268,-0.301944 -0.154362,-0.198422 -0.436842,-0.345429 -0.773499,-0.402537 -0.153537,-0.02603 -0.445515,-0.02603 -0.598191,0 -0.415947,0.07116 -0.727633,0.264614 -0.855955,0.531187 -0.03072,0.06379 -0.03369,0.0815 -0.03437,0.204922 0,0.117279 0.003,0.143903 0.02798,0.202092 0.120267,0.280645 0.464187,0.489065 0.912198,0.55281 0.124555,0.01774 0.451023,0.01122 0.572427,-0.01143 z m 36.123094,-0.108854 c 0.412179,-0.04977 0.764979,-0.253301 0.895161,-0.516505 0.114588,-0.231676 0.04574,-0.496145 -0.178973,-0.687453 -0.397721,-0.338628 -1.150171,-0.409116 -1.682292,-0.157597 -0.504305,0.238377 -0.632044,0.696579 -0.287452,1.031173 0.274632,0.266673 0.74789,0.391403 1.253556,0.330383 z M 23.790814,48.862194 c 0.262527,-0.02095 0.505334,-0.09708 0.69438,-0.217616 0.468334,-0.298595 0.468334,-0.783192 0,-1.081801 -0.468045,-0.298431 -1.228652,-0.298431 -1.696698,0 -0.468045,0.298425 -0.468045,0.783378 0,1.081801 0.265593,0.16936 0.626366,0.247673 1.002318,0.217616 z m 51.935955,-0.137981 c 0.694813,-0.11283 1.071863,-0.59182 0.808059,-1.026524 -0.07556,-0.124479 -0.253341,-0.266836 -0.430043,-0.344362 -0.09351,-0.04097 -0.277867,-0.09281 -0.400062,-0.112389 -0.156306,-0.02502 -0.401749,-0.02546 -0.557987,-6.7e-4 -0.426325,0.06694 -0.747356,0.261432 -0.87752,0.531636 -0.0309,0.06414 -0.03369,0.08105 -0.03433,0.208836 0,0.149315 0.0084,0.184677 0.0759,0.292238 0.15307,0.243931 0.50582,0.424133 0.914144,0.46699 0.148252,0.01558 0.348602,0.0094 0.501845,-0.01558 z m -27.183826,-3.03763 c -8.426563,-0.03261 -18.125684,-0.303365 -26.152339,-0.73004 -1.175524,-0.0625 -2.699523,-0.150817 -2.704586,-0.156756 0,-7.87e-4 -0.199183,-1.741293 -0.440848,-3.867457 -0.241678,-2.126157 -0.442592,-3.886301 -0.446466,-3.911427 l -0.0071,-0.04569 -0.161746,0 c -0.453739,0 -0.922339,-0.0963 -1.305258,-0.268245 -0.154615,-0.06943 -0.442455,-0.252964 -0.551344,-0.351551 -0.206922,-0.187327 -0.348138,-0.412702 -0.402388,-0.642182 -0.02407,-0.101693 -0.02381,-0.331281 0,-0.434497 0.112617,-0.478795 0.578262,-0.889547 1.252282,-1.104628 0.338866,-0.108124 0.650137,-0.154684 1.034746,-0.154771 0.247948,-8.8e-5 0.367837,0.0084 0.570981,0.04039 0.279945,0.04407 0.560034,0.125287 0.786181,0.228008 0.141657,0.06435 0.35929,0.195506 0.469968,0.28324 0.226889,0.179833 0.391616,0.408084 0.467784,0.648163 0.02571,0.08096 0.02889,0.113116 0.02851,0.282084 0,0.175886 -0.0033,0.198458 -0.03386,0.290494 -0.08032,0.240373 -0.245631,0.462149 -0.481777,0.646296 -0.09733,0.0759 -0.298622,0.197535 -0.415636,0.251142 -0.05244,0.02404 -0.09421,0.04605 -0.09276,0.04891 0.0052,0.01078 7.241194,4.17839 7.247494,4.174385 0.0037,-0.0025 0.475341,-1.837583 1.048301,-4.078398 l 1.041726,-4.07421 -0.156049,-0.0051 c -0.688219,-0.02258 -1.322398,-0.196352 -1.805983,-0.494954 -0.441127,-0.272384 -0.713485,-0.595874 -0.825682,-0.980671 -0.03664,-0.125702 -0.0456,-0.399963 -0.01764,-0.54003 0.160815,-0.805609 1.155179,-1.442218 2.415998,-1.546762 0.169938,-0.0141 0.538418,-0.01615 0.694468,-0.0038 0.956739,0.07517 1.770528,0.442123 2.193171,0.988934 0.327225,0.423351 0.376156,0.923117 0.134587,1.374669 -0.179025,0.334638 -0.520554,0.632665 -0.972282,0.848461 l -0.133468,0.06375 0.607037,0.383 c 4.846556,3.057897 8.347188,5.264233 8.352368,5.264233 0.0054,0 9.381703,-11.436595 9.394457,-11.458629 0.0022,-0.0039 -0.01188,-0.009 -0.03117,-0.01148 -0.128555,-0.01664 -0.398212,-0.06409 -0.499944,-0.08796 -0.166548,-0.03908 -0.449354,-0.127172 -0.592546,-0.184553 -0.376948,-0.151061 -0.730025,-0.371038 -0.976877,-0.608625 -0.69032,-0.664414 -0.697617,-1.549145 -0.01833,-2.221746 0.170867,-0.16919 0.452038,-0.368479 0.687945,-0.487609 0.436703,-0.220524 0.921389,-0.358253 1.476106,-0.419452 0.189748,-0.02092 0.674107,-0.0293 0.86907,-0.01501 0.736409,0.05395 1.393857,0.254905 1.911261,0.584186 0.934022,0.594416 1.196141,1.493708 0.66125,2.268637 -0.197767,0.286541 -0.535819,0.565741 -0.923489,0.762738 -0.333612,0.169529 -0.777371,0.311626 -1.179378,0.377665 l -0.132522,0.02177 0.302305,0.390384 c 0.166255,0.214709 2.005834,2.57514 4.087964,5.245403 2.082127,2.670267 3.95339,5.071179 4.158387,5.335355 l 0.372698,0.480323 1.728569,-1.100588 c 0.950684,-0.605326 2.94805,-1.875971 4.438562,-2.823667 L 68.225676,32.43564 68.195136,32.423 c -0.09504,-0.03938 -0.282548,-0.135044 -0.383421,-0.195626 -0.383591,-0.230369 -0.678994,-0.558036 -0.798574,-0.885762 -0.05164,-0.141527 -0.06867,-0.244063 -0.06867,-0.413197 0,-0.180922 0.01842,-0.281297 0.08053,-0.438789 0.251483,-0.637628 1.03467,-1.136264 2.036761,-1.296763 0.207355,-0.03323 0.349996,-0.04508 0.598191,-0.04975 0.364728,-0.0069 0.678686,0.02238 1.008338,0.09393 0.13827,0.03003 0.416481,0.113776 0.543238,0.16354 0.619825,0.243371 1.0757,0.635817 1.251904,1.077778 0.06517,0.163448 0.08599,0.272538 0.08586,0.450057 -1.2e-4,0.1788 -0.0213,0.290536 -0.08507,0.448553 -0.05424,0.134382 -0.101009,0.214904 -0.199387,0.343144 -0.411404,0.536275 -1.222646,0.906908 -2.153758,0.983986 -0.08089,0.0066 -0.240037,0.01219 -0.353679,0.01219 l -0.206616,0 0.0061,0.03377 c 0.123866,0.692956 1.51428,8.071188 1.520992,8.071188 0.0054,0 1.916252,-0.96235 4.246404,-2.138536 l 4.236645,-2.138533 -0.06047,-0.04861 c -0.210864,-0.169529 -0.372834,-0.389638 -0.444447,-0.603961 -0.110755,-0.331477 -0.04597,-0.66663 0.187544,-0.970289 0.318243,-0.413868 0.919084,-0.707135 1.63885,-0.799929 0.127154,-0.01638 0.177787,-0.01847 0.448649,-0.01831 0.28382,0 0.316366,0.0017 0.461846,0.02155 1.008237,0.137797 1.732737,0.64922 1.845277,1.302594 0.01892,0.109876 0.0066,0.304669 -0.02633,0.419771 -0.03406,0.118701 -0.120061,0.282174 -0.206202,0.391983 -0.320564,0.408646 -0.900908,0.692927 -1.612742,0.790008 -0.145257,0.01985 -0.178474,0.02138 -0.461847,0.02159 -0.246216,0 -0.326711,-0.0025 -0.415776,-0.0141 -0.06076,-0.0079 -0.113383,-0.01249 -0.116947,-0.01019 -0.0037,0.0025 -0.34015,1.751892 -0.747939,3.888026 -0.40779,2.136139 -0.743622,3.88543 -0.746273,3.887328 -0.01099,0.0079 -2.102608,0.142406 -3.275808,0.210737 -8.462517,0.492889 -17.442575,0.713207 -27.485804,0.674326 z m -25.253561,-2.67662 c 0.339407,-0.03735 0.59757,-0.124442 0.845953,-0.28539 0.151629,-0.09825 0.239213,-0.180208 0.319603,-0.299105 0.144379,-0.213524 0.162431,-0.479302 0.04756,-0.700089 -0.153316,-0.29463 -0.517148,-0.530065 -0.966327,-0.625308 -0.193039,-0.04093 -0.292242,-0.05098 -0.503723,-0.05103 -0.152037,0 -0.221037,0.0038 -0.324024,0.0176 -0.313444,0.04223 -0.579763,0.137751 -0.807218,0.289546 -0.62514,0.417182 -0.550099,1.091649 0.161829,1.45484 0.187944,0.09588 0.447001,0.170363 0.68969,0.19829 0.134084,0.01543 0.399385,0.01578 0.536679,7.86e-4 z m 52.733136,-0.01539 c 0.179714,-0.0176 0.290636,-0.03989 0.454877,-0.0914 0.422625,-0.132536 0.699511,-0.350815 0.825906,-0.651105 0.02908,-0.06912 0.03211,-0.09049 0.03272,-0.231115 0,-0.170086 -0.01122,-0.216464 -0.09168,-0.35825 -0.153104,-0.269481 -0.531052,-0.498903 -0.966344,-0.586603 -0.185358,-0.03735 -0.267969,-0.0445 -0.504719,-0.04366 -0.201417,7.87e-4 -0.229263,0.0025 -0.364246,0.02525 -0.584509,0.09781 -1.022503,0.393917 -1.139535,0.770375 -0.02604,0.08379 -0.02931,0.282023 -0.0059,0.359757 0.108086,0.359262 0.484549,0.642565 1.011195,0.760992 0.238231,0.05356 0.502792,0.06976 0.747735,0.04576 z M 64.82867,42.830993 c 0.459834,-0.03194 0.897019,-0.143754 1.267547,-0.324194 0.105764,-0.0515 0.319396,-0.18507 0.408513,-0.255411 0.613078,-0.483865 0.728321,-1.150341 0.295162,-1.706965 -0.132694,-0.170526 -0.267144,-0.29024 -0.475978,-0.423765 -0.393796,-0.251799 -0.911218,-0.409433 -1.485193,-0.452472 -0.157582,-0.0118 -0.536922,-0.0051 -0.686637,0.01207 -0.259588,0.02986 -0.434036,0.06563 -0.665106,0.136379 -0.282358,0.08645 -0.499057,0.185652 -0.71309,0.326418 -0.332958,0.219008 -0.553632,0.48546 -0.653696,0.789306 -0.04444,0.134928 -0.05649,0.392213 -0.02506,0.535517 0.15796,0.720588 1.055393,1.279514 2.187802,1.362608 0.135774,0.01 0.406034,0.01019 0.545732,0 z m -14.77778,-0.08741 c 0.578364,-0.03369 1.121275,-0.204086 1.605634,-0.503893 0.311255,-0.192672 0.545835,-0.386772 0.775702,-0.641846 0.969838,-1.076163 1.18115,-2.666652 0.525992,-3.959131 -0.28117,-0.554667 -0.691524,-1.015236 -1.20621,-1.353814 -0.478025,-0.314447 -1.002004,-0.498889 -1.57197,-0.553328 -0.311478,-0.02974 -0.687772,-0.01143 -0.998579,0.04859 -0.694331,0.134107 -1.336339,0.485434 -1.835552,1.004472 -0.499574,0.519432 -0.829847,1.186713 -0.939907,1.898981 -0.17691,1.144794 0.206664,2.291846 1.033619,3.091013 0.395501,0.38221 0.846283,0.650039 1.371259,0.814732 0.413229,0.129628 0.811655,0.179189 1.240012,0.154224 z M 34.267268,42.600899 c 0.609498,-0.04313 1.137745,-0.207072 1.551902,-0.481674 0.717823,-0.475934 0.897209,-1.192341 0.448011,-1.78908 -0.372834,-0.495268 -1.111705,-0.830247 -1.967919,-0.892206 -0.169095,-0.01223 -0.554097,-0.0054 -0.711196,0.01252 -0.369771,0.04236 -0.730317,0.139542 -1.037596,0.279726 -0.123608,0.05638 -0.37027,0.206379 -0.473156,0.287716 -0.489644,0.387092 -0.668805,0.909112 -0.477475,1.39119 0.209093,0.52682 0.829675,0.951198 1.63861,1.120566 0.319843,0.06697 0.708545,0.09388 1.028819,0.07122 z"
     id="path3131-3"
     inkscape:connector-curvature="0" />
</svg>
