<?xml version="1.0" encoding="UTF-8" standalone="no"?>
<!-- Created with Inkscape (http://www.inkscape.org/) -->

<svg
   xmlns:dc="http://purl.org/dc/elements/1.1/"
   xmlns:cc="http://creativecommons.org/ns#"
   xmlns:rdf="http://www.w3.org/1999/02/22-rdf-syntax-ns#"
   xmlns:svg="http://www.w3.org/2000/svg"
   xmlns="http://www.w3.org/2000/svg"
   xmlns:sodipodi="http://sodipodi.sourceforge.net/DTD/sodipodi-0.dtd"
   xmlns:inkscape="http://www.inkscape.org/namespaces/inkscape"
   version="1.1"
   width="100"
   height="100"
   id="svg2"
   inkscape:version="0.48.5 r10040"
   sodipodi:docname="icon.svg"
   inkscape:export-filename="/home/antoine/ownCloud/scripts/happening/Checkers/icon.png"
   inkscape:export-xdpi="300"
   inkscape:export-ydpi="300">
  <sodipodi:namedview
     pagecolor="#ffffff"
     bordercolor="#666666"
     borderopacity="1"
     objecttolerance="10"
     gridtolerance="10"
     guidetolerance="10"
     inkscape:pageopacity="0"
     inkscape:pageshadow="2"
     inkscape:window-width="956"
     inkscape:window-height="1041"
     id="namedview3048"
     showgrid="false"
     inkscape:zoom="2.8284271"
     inkscape:cx="11.485488"
     inkscape:cy="13.340912"
     inkscape:window-x="960"
     inkscape:window-y="18"
     inkscape:window-maximized="0"
     inkscape:current-layer="svg2" />
  <defs
     id="defs4" />
  <metadata
     id="metadata7">
    <rdf:RDF>
      <cc:Work
         rdf:about="">
        <dc:format>image/svg+xml</dc:format>
        <dc:type
           rdf:resource="http://purl.org/dc/dcmitype/StillImage" />
        <dc:title />
      </cc:Work>
    </rdf:RDF>
  </metadata>
  <g
     transform="matrix(0.98851441,0,0,0.75480702,0.57428086,-703.07316)"
     id="layer1-7"
     style="fill:#ffffff;stroke:#000000;stroke-width:1.1966989;stroke-miterlimit:4;stroke-dasharray:none" />
  <g
     id="g3150"
     transform="translate(-0.58649838,10.318925)">
    <g
       id="g4162"
       transform="matrix(1.1105709,0,0,1.1105709,-4.9419973,-10.837767)">
      <g
         id="g4157"
         transform="translate(0,0.97815284)">
        <path
           style="fill:#ffffff;fill-opacity:1;stroke:#000000;stroke-width:1.07739031;stroke-linecap:butt;stroke-linejoin:miter;stroke-miterlimit:4;stroke-opacity:1"
           id="rect4086"
           d="m 94.48315,53.516852 c 0,8.89236 -4.794087,17.729964 -13.028812,24.017809 -8.234726,6.287845 -19.808676,9.948491 -31.454336,9.948491 -11.645661,0 -23.219611,-3.660646 -31.454337,-9.948491 C 10.31094,71.246816 5.4925079,62.409179 5.516853,53.516852 L 5.538695,45.538696 94.461791,45.20724 z"
           inkscape:connector-curvature="0" />
        <g
           style="fill:#000000;stroke:#000000;stroke-width:1.1966989;stroke-miterlimit:4;stroke-dasharray:none"
           id="layer1"
           transform="matrix(0.98842851,0,0,0.76620633,0.57857273,-723.01625)">
          <path
             style="fill:#000000;fill-opacity:1;stroke:#000000;stroke-width:1.13399041;stroke-miterlimit:4;stroke-dasharray:none"
             id="path2985"
             transform="matrix(1.1224944,0,0,0.99212597,-8.4298406,951.69289)"
             d="m 92.142857,51.07143 a 40.089287,45.357143 0 1 1 -80.178574,0 40.089287,45.357143 0 1 1 80.178574,0 z"
             inkscape:connector-curvature="0" />
        </g>
      </g>
      <g
         id="g4152">
        <path
           style="fill:#ffffff;fill-opacity:1;stroke:#000000;stroke-width:1.07739031;stroke-linecap:butt;stroke-linejoin:miter;stroke-miterlimit:4;stroke-opacity:1"
           id="path4146"
           d="m 94.48315,45.495005 c 0,8.89236 -4.794087,17.729964 -13.028812,24.017809 -8.234726,6.287845 -19.808676,9.948491 -31.454336,9.948491 -11.645661,0 -23.219611,-3.660646 -31.454337,-9.948491 C 10.31094,63.224969 5.4925079,54.387332 5.516853,45.495005 l 0.021842,-7.978156 88.923096,-0.331456 z"
           inkscape:connector-curvature="0" />
        <g
           style="fill:#000000;stroke:#000000;stroke-width:1.1966989;stroke-miterlimit:4;stroke-dasharray:none"
           id="g4148"
           transform="matrix(0.98842851,0,0,0.76620633,0.57857273,-731.0381)">
          <path
             style="fill:#000000;fill-opacity:1;stroke:#000000;stroke-width:1.13399041;stroke-miterlimit:4;stroke-dasharray:none"
             id="path4150"
             transform="matrix(1.1224944,0,0,0.99212597,-8.4298406,951.69289)"
             d="m 92.142857,51.07143 a 40.089287,45.357143 0 1 1 -80.178574,0 40.089287,45.357143 0 1 1 80.178574,0 z"
             inkscape:connector-curvature="0" />
        </g>
      </g>
    </g>
    <path
       inkscape:connector-curvature="0"
       id="path3131-3"
       d="m 47.854184,43.398152 c -0.114189,-0.0011 -0.590635,-0.0067 -1.058785,-0.012 -8.858757,-0.09828 -17.991492,-0.519936 -26.774209,-1.236276 -0.821301,-0.06697 -2.293062,-0.192151 -2.29816,-0.195449 -0.0067,-0.0044 -0.121397,-1.436679 -0.115533,-1.439789 0.0033,-0.0011 0.285739,0.01633 0.628284,0.03965 16.451875,1.123476 34.785179,1.349811 52.427342,0.647241 4.157433,-0.165564 8.714638,-0.411966 11.500527,-0.621842 0.189886,-0.01433 0.346943,-0.02488 0.34902,-0.02354 0.0056,0.0033 -0.109058,1.430171 -0.114756,1.434602 -0.01488,0.01166 -1.602009,0.170473 -2.6486,0.26496 -6.58051,0.594045 -14.687678,0.990274 -22.767403,1.112726 -0.338758,0.0056 -0.893043,0.01355 -1.231801,0.01888 -0.539249,0.0078 -7.324548,0.01766 -7.895926,0.01111 z m 0.740462,-3.03006 c -9.261661,-0.05364 -18.626439,-0.315091 -27.210164,-0.759397 -1.398819,-0.07241 -3.856413,-0.214029 -3.870561,-0.223047 -0.0056,-0.0044 -0.362435,-4.341921 -0.357526,-4.34582 0.0011,-0.0011 0.179945,0.0089 0.395962,0.0241 8.157977,0.552831 16.952343,0.897474 25.907498,1.015284 11.640638,0.153125 23.976482,-0.09584 34.77394,-0.701937 1.627886,-0.0914 4.417985,-0.270679 4.682367,-0.300931 l 0.04587,-0.0056 -0.0089,0.07396 c -0.0089,0.08052 -0.339279,4.184931 -0.339279,4.218848 l 0,0.02077 -0.557096,0.03776 c -7.632598,0.518437 -15.671854,0.820834 -24.438623,0.919208 -2.50517,0.02821 -6.644812,0.0402 -9.023922,0.02643 z m 2.046893,-1.279589 c 0.130593,-0.02021 0.306585,-0.07008 0.425149,-0.120208 0.402838,-0.170495 0.633614,-0.49386 0.574043,-0.804408 -0.06752,-0.352051 -0.452513,-0.632271 -0.992572,-0.722438 -0.115578,-0.01932 -0.166486,-0.02288 -0.330395,-0.02288 -0.164498,0 -0.214674,0.0044 -0.332161,0.02299 -0.969884,0.16181 -1.323167,0.913323 -0.655603,1.394655 0.188441,0.135867 0.492749,0.238673 0.798345,0.269658 0.118764,0.0121 0.380226,0.0033 0.513194,-0.01755 z M 39.796148,39.05874 c 0.24135,-0.0462 0.423028,-0.118187 0.598931,-0.237251 0.270535,-0.183122 0.39804,-0.427203 0.351929,-0.673617 -0.06164,-0.329218 -0.401705,-0.601441 -0.882015,-0.705945 -0.179802,-0.03909 -0.308839,-0.05087 -0.50189,-0.04542 -0.273411,0.0078 -0.530286,0.06486 -0.733543,0.163299 -0.795924,0.385823 -0.688298,1.159413 0.200703,1.442487 0.214451,0.0683 0.354749,0.08673 0.629738,0.08285 0.183066,-0.0033 0.232365,-0.0067 0.336147,-0.02632 z m 21.184707,-0.128493 c 0.457388,-0.08529 0.797811,-0.303597 0.931169,-0.597165 0.02743,-0.06041 0.03165,-0.08951 0.03154,-0.219682 -1.33e-4,-0.165897 -0.01433,-0.216273 -0.09706,-0.341378 -0.152826,-0.231355 -0.491427,-0.41682 -0.885469,-0.485076 -0.166008,-0.02876 -0.50591,-0.02887 -0.671251,0 -0.473714,0.08218 -0.829008,0.308706 -0.957257,0.610404 -0.02699,0.06341 -0.03187,0.09617 -0.03154,0.211796 0,0.147273 0.01621,0.206644 0.08429,0.316391 0.161744,0.260773 0.522546,0.455345 0.959867,0.51757 0.138321,0.01966 0.500911,0.01233 0.635746,-0.01266 z M 30.282898,38.753766 c 0.236852,-0.0442 0.41813,-0.114033 0.596055,-0.229732 0.141597,-0.09207 0.235507,-0.188487 0.298843,-0.306818 0.06208,-0.115977 0.07974,-0.196593 0.07097,-0.324431 -0.0089,-0.132735 -0.04387,-0.220071 -0.133569,-0.335326 -0.171427,-0.220359 -0.485141,-0.383624 -0.859015,-0.447049 -0.170517,-0.02887 -0.494782,-0.02887 -0.664344,0 -0.46193,0.07907 -0.808084,0.293879 -0.950593,0.589924 -0.03409,0.07086 -0.03743,0.09051 -0.0382,0.227578 0,0.130248 0.0033,0.159812 0.0311,0.224436 0.133568,0.311681 0.515515,0.543147 1.013062,0.613934 0.138322,0.01966 0.50089,0.01244 0.635713,-0.01266 z M 70.40015,38.632881 c 0.457756,-0.05531 0.849565,-0.281308 0.99415,-0.573621 0.127249,-0.257286 0.05075,-0.550999 -0.19877,-0.763462 -0.441696,-0.376073 -1.277345,-0.454357 -1.868302,-0.175026 -0.560061,0.264738 -0.701925,0.773601 -0.319234,1.145198 0.304996,0.296156 0.830585,0.434678 1.392156,0.366911 z M 21.479336,38.417497 c 0.291558,-0.02321 0.561216,-0.107837 0.771158,-0.241683 0.520125,-0.331605 0.520125,-0.869788 0,-1.201416 -0.519791,-0.331427 -1.364503,-0.331427 -1.884294,0 -0.519803,0.331428 -0.519803,0.87 0,1.201416 0.294956,0.188086 0.695617,0.275066 1.113136,0.241683 z M 79.157901,38.26426 c 0.771636,-0.125306 1.190377,-0.657258 0.897408,-1.140034 -0.08396,-0.138244 -0.281352,-0.296334 -0.477601,-0.382437 -0.103838,-0.04553 -0.308583,-0.103061 -0.444295,-0.124817 -0.173582,-0.02776 -0.446171,-0.02832 -0.619676,-7.44e-4 -0.47347,0.0743 -0.829996,0.290337 -0.974548,0.590424 -0.03432,0.07119 -0.03743,0.09007 -0.03809,0.231921 0,0.16583 0.0089,0.2051 0.08429,0.324553 0.169995,0.270901 0.561749,0.471037 1.015217,0.518625 0.164642,0.01732 0.387145,0.01 0.557329,-0.01732 z m -30.18957,-3.373504 c -9.358292,-0.0362 -20.129852,-0.336913 -29.044027,-0.810761 -1.305499,-0.06941 -2.998009,-0.167496 -3.003632,-0.174093 0,-8.77e-4 -0.221206,-1.933826 -0.489592,-4.295088 -0.268401,-2.361241 -0.49153,-4.316012 -0.495833,-4.343909 l -0.0079,-0.05075 -0.17963,0 c -0.503909,0 -1.024323,-0.106948 -1.449582,-0.29791 -0.171711,-0.07707 -0.491377,-0.28093 -0.612306,-0.390421 -0.229802,-0.208044 -0.386632,-0.458333 -0.446881,-0.713187 -0.02673,-0.112934 -0.02644,-0.36791 0,-0.482543 0.12507,-0.53173 0.642201,-0.987897 1.390748,-1.22677 0.376335,-0.120075 0.722024,-0.171783 1.149159,-0.171883 0.275364,-8.9e-5 0.408509,0.0089 0.634115,0.04487 0.310899,0.04898 0.621957,0.139144 0.873113,0.253221 0.157312,0.07141 0.399017,0.217128 0.521935,0.314559 0.251966,0.199714 0.434911,0.453212 0.519503,0.719827 0.02854,0.08996 0.0321,0.125628 0.03165,0.313281 0,0.195327 -0.0033,0.220404 -0.03765,0.32261 -0.08918,0.266959 -0.27279,0.51325 -0.535051,0.717762 -0.108059,0.08429 -0.331639,0.219371 -0.461587,0.278909 -0.05819,0.02665 -0.104615,0.0512 -0.103061,0.05431 0.0056,0.01199 8.041855,4.640398 8.048852,4.635956 0.0044,-0.0022 0.527899,-2.040774 1.164211,-4.529353 l 1.156915,-4.524699 -0.173304,-0.0056 c -0.764317,-0.0251 -1.468619,-0.21806 -2.005669,-0.549688 -0.489906,-0.302497 -0.792381,-0.661756 -0.916987,-1.089103 -0.04065,-0.139599 -0.05064,-0.444184 -0.01955,-0.599742 0.178602,-0.894687 1.282909,-1.601688 2.683139,-1.717787 0.18873,-0.01566 0.597953,-0.01788 0.771258,-0.0044 1.062528,0.08351 1.966299,0.491006 2.435671,1.098277 0.363412,0.470171 0.417752,1.02519 0.149472,1.526668 -0.198826,0.371642 -0.578119,0.702625 -1.079786,0.942275 l -0.148228,0.07074 0.67415,0.425348 c 5.382448,3.396015 9.270146,5.846312 9.275899,5.846312 0.0056,0 10.419054,-12.701155 10.433213,-12.725621 0.0022,-0.0044 -0.01322,-0.01 -0.03465,-0.01277 -0.142775,-0.01844 -0.442241,-0.07119 -0.555219,-0.09773 -0.184966,-0.04342 -0.499046,-0.141231 -0.658069,-0.204955 -0.41863,-0.167774 -0.81075,-0.412067 -1.084894,-0.675927 -0.76665,-0.737875 -0.774746,-1.72043 -0.02032,-2.467411 0.189763,-0.187898 0.502023,-0.4092121 0.764017,-0.5415144 0.484987,-0.2449142 1.023269,-0.3978731 1.639314,-0.4658401 0.210731,-0.023211 0.748647,-0.03254 0.965164,-0.016658 0.817835,0.059971 1.54798,0.2830956 2.12259,0.6487844 1.037306,0.6601451 1.328409,1.6588711 0.734365,2.5194851 -0.219627,0.318223 -0.595055,0.628294 -1.02559,0.847066 -0.370509,0.188276 -0.863336,0.346087 -1.309786,0.419429 l -0.147172,0.02421 0.335725,0.433545 c 0.184644,0.238451 2.227617,2.859876 4.53997,5.8254 2.312353,2.965514 4.390519,5.631905 4.618186,5.925285 l 0.41391,0.533429 1.9197,-1.222273 c 1.055797,-0.672261 3.274018,-2.083397 4.929335,-3.135885 l 3.009681,-1.913603 -0.03387,-0.01399 c -0.105504,-0.04376 -0.313791,-0.149971 -0.425826,-0.21725 -0.426004,-0.255842 -0.754066,-0.619743 -0.886868,-0.983699 -0.05731,-0.157179 -0.0763,-0.271057 -0.0763,-0.458888 0,-0.200924 0.02044,-0.312404 0.0894,-0.487307 0.279287,-0.708134 1.149075,-1.261898 2.261967,-1.440144 0.230288,-0.03687 0.388699,-0.05009 0.664332,-0.05531 0.405059,-0.0078 0.753733,0.02488 1.119833,0.104283 0.153559,0.03332 0.462531,0.12635 0.603307,0.181623 0.688354,0.270279 1.194641,0.706112 1.390323,1.196951 0.07241,0.181511 0.09551,0.302664 0.0954,0.499812 -1.33e-4,0.19857 -0.02366,0.322665 -0.09451,0.498158 -0.06019,0.149238 -0.112179,0.238662 -0.221426,0.381081 -0.4569,0.595566 -1.357839,1.007188 -2.391903,1.092791 -0.08984,0.0078 -0.266581,0.01355 -0.392787,0.01355 l -0.229466,0 0.0067,0.03754 c 0.137566,0.76957 1.681715,8.963618 1.689167,8.963618 0.0056,0 2.128142,-1.068758 4.715939,-2.37499 l 4.705089,-2.375 -0.06719,-0.05397 c -0.234175,-0.188264 -0.414055,-0.432711 -0.493582,-0.67074 -0.123007,-0.368121 -0.05109,-0.74034 0.208276,-1.077576 0.353428,-0.459621 1.020703,-0.785318 1.820059,-0.888368 0.141209,-0.01821 0.197448,-0.02054 0.498258,-0.02032 0.315202,0 0.351351,0.0022 0.512917,0.02399 1.119711,0.153026 1.924319,0.721005 2.049303,1.446619 0.02099,0.122029 0.0078,0.338357 -0.02921,0.466184 -0.03787,0.131825 -0.133335,0.31337 -0.229,0.435322 -0.356004,0.453834 -1.000524,0.769548 -1.791062,0.877362 -0.161321,0.02199 -0.198215,0.02377 -0.512917,0.02399 -0.273434,0 -0.362835,-0.0022 -0.461742,-0.01566 -0.06752,-0.0089 -0.125928,-0.01388 -0.129881,-0.01133 -0.0044,0.0022 -0.377761,1.945598 -0.830641,4.317933 -0.452879,2.372335 -0.825842,4.315046 -0.828785,4.317156 -0.01222,0.0089 -2.335098,0.158145 -3.63802,0.23403 -9.398228,0.54739 -19.371221,0.792071 -30.52494,0.748892 z M 20.922463,31.91818 c 0.376938,-0.04153 0.663643,-0.138199 0.939487,-0.316946 0.168396,-0.109058 0.265671,-0.200136 0.35495,-0.332182 0.160344,-0.23713 0.18039,-0.532297 0.05286,-0.7775 -0.170273,-0.327208 -0.574332,-0.588669 -1.073178,-0.69444 -0.214385,-0.04542 -0.324553,-0.05664 -0.559417,-0.05664 -0.168851,0 -0.245481,0.0044 -0.359858,0.01955 -0.348098,0.04687 -0.643865,0.152981 -0.896464,0.321555 -0.694263,0.463308 -0.610925,1.212354 0.179712,1.615703 0.208732,0.106503 0.496437,0.189196 0.76595,0.220215 0.148916,0.0171 0.443551,0.01755 0.596021,8.77e-4 z m 58.56389,-0.0171 c 0.199581,-0.01955 0.322765,-0.04431 0.505165,-0.101506 0.469361,-0.147195 0.776867,-0.38961 0.917232,-0.723104 0.03232,-0.07674 0.03565,-0.100506 0.03632,-0.256664 0,-0.188897 -0.01244,-0.240405 -0.101839,-0.397862 -0.170028,-0.299276 -0.589769,-0.554075 -1.073189,-0.651472 -0.205855,-0.04153 -0.2976,-0.04942 -0.560527,-0.04853 -0.223691,8.78e-4 -0.254621,0.0022 -0.404526,0.02799 -0.64914,0.108614 -1.135558,0.437476 -1.265529,0.855561 -0.02887,0.09307 -0.03254,0.313204 -0.0067,0.399539 0.12003,0.398984 0.538127,0.713609 1.122998,0.845134 0.264571,0.05953 0.558384,0.07752 0.830418,0.05086 z M 67.054789,31.71941 c 0.510674,-0.03543 0.996204,-0.159655 1.407704,-0.360047 0.117454,-0.05719 0.354705,-0.205533 0.453679,-0.283651 0.680869,-0.537361 0.808851,-1.277534 0.327796,-1.8957 -0.147361,-0.189385 -0.296677,-0.322332 -0.528609,-0.470626 -0.437332,-0.279642 -1.011963,-0.454702 -1.649409,-0.5025 -0.175004,-0.0131 -0.596288,-0.0056 -0.762562,0.01344 -0.288282,0.03321 -0.482021,0.07285 -0.738641,0.15146 -0.313581,0.09606 -0.554242,0.206178 -0.791937,0.362513 -0.369776,0.243226 -0.614845,0.539137 -0.72598,0.876573 -0.04931,0.14985 -0.06275,0.435588 -0.02788,0.594733 0.175426,0.800266 1.172086,1.420987 2.429707,1.513275 0.150794,0.01111 0.450937,0.01133 0.606083,0 z M 50.643017,31.62235 c 0.642309,-0.03743 1.245249,-0.226656 1.783165,-0.559616 0.345677,-0.213974 0.606195,-0.429536 0.861481,-0.712809 1.077065,-1.195152 1.311751,-2.961504 0.58415,-4.396895 -0.31226,-0.616 -0.767993,-1.127496 -1.339582,-1.503513 -0.530886,-0.349208 -1.112803,-0.554052 -1.745784,-0.614501 -0.345921,-0.03298 -0.763818,-0.01266 -1.108994,0.05397 -0.771103,0.148927 -1.4841,0.539104 -2.038508,1.115535 -0.554819,0.576864 -0.921608,1.317926 -1.043837,2.108952 -0.196471,1.27137 0.22951,2.545251 1.147908,3.432786 0.439231,0.424471 0.939854,0.721915 1.522882,0.904815 0.458921,0.143963 0.901394,0.199003 1.377119,0.171283 z M 33.114188,31.463879 c 0.676893,-0.04787 1.263541,-0.229966 1.723495,-0.534929 0.79719,-0.528554 0.996415,-1.324178 0.497546,-1.9869 -0.414054,-0.550032 -1.234621,-0.922051 -2.185514,-0.990862 -0.187787,-0.01355 -0.615368,-0.0056 -0.789827,0.01388 -0.410667,0.04709 -0.811072,0.15498 -1.152328,0.31066 -0.137278,0.06264 -0.411212,0.229199 -0.525478,0.319533 -0.54378,0.429891 -0.74275,1.009631 -0.530264,1.545015 0.232209,0.585071 0.921407,1.056364 1.819792,1.244462 0.355205,0.07441 0.786884,0.104282 1.142578,0.07907 z"
       style="fill:#ffffff" />
  </g>
</svg>
